<?xml version="1.0" encoding="UTF-8" standalone="no"?>
<!-- Created with Inkscape (http://www.inkscape.org/) -->

<svg
   xmlns:dc="http://purl.org/dc/elements/1.1/"
   xmlns:cc="http://creativecommons.org/ns#"
   xmlns:rdf="http://www.w3.org/1999/02/22-rdf-syntax-ns#"
   xmlns:svg="http://www.w3.org/2000/svg"
   xmlns="http://www.w3.org/2000/svg"
   xmlns:sodipodi="http://sodipodi.sourceforge.net/DTD/sodipodi-0.dtd"
   xmlns:inkscape="http://www.inkscape.org/namespaces/inkscape"
   width="128"
   height="128"
   viewBox="0 0 128 128"
   id="svg2"
   version="1.1"
   inkscape:version="0.91 r13725"
   sodipodi:docname="logo-round.svg"
   inkscape:export-filename="/home/zlsa/projects/redditloop/pr/media/logo/logo-512.png"
   inkscape:export-xdpi="360"
   inkscape:export-ydpi="360">
  <defs
     id="defs4" />
  <sodipodi:namedview
     id="base"
     pagecolor="#ffffff"
     bordercolor="#666666"
     borderopacity="1.0"
     inkscape:pageopacity="1"
     inkscape:pageshadow="2"
     inkscape:zoom="1"
     inkscape:cx="121.41816"
     inkscape:cy="14.640846"
     inkscape:document-units="px"
     inkscape:current-layer="layer1"
     showgrid="false"
     units="px"
     showguides="false"
     inkscape:guide-bbox="true"
     inkscape:snap-text-baseline="true"
     inkscape:window-width="1600"
     inkscape:window-height="859"
     inkscape:window-x="0"
     inkscape:window-y="20"
     inkscape:window-maximized="0"
     height="128px"
     inkscape:object-nodes="true"
     inkscape:snap-smooth-nodes="true"
     inkscape:snap-center="true"
     inkscape:snap-global="true">
    <inkscape:grid
       type="xygrid"
       id="grid3336"
       spacingx="8"
       spacingy="8" />
    <sodipodi:guide
       position="16,20"
       orientation="1,0"
       id="guide3362" />
    <inkscape:grid
       type="xygrid"
       id="grid3517"
       empspacing="1000000" />
  </sodipodi:namedview>
  <metadata
     id="metadata7">
    <rdf:RDF>
      <cc:Work
         rdf:about="">
        <dc:format>image/svg+xml</dc:format>
        <dc:type
           rdf:resource="http://purl.org/dc/dcmitype/StillImage" />
        <dc:title></dc:title>
      </cc:Work>
    </rdf:RDF>
  </metadata>
  <g
     inkscape:label="Layer 1"
     inkscape:groupmode="layer"
     id="layer1"
     transform="translate(0,-924.3621)">
    <circle
       r="17.499966"
       cy="975.23712"
       cx="81.499969"
       id="circle4371"
       style="opacity:1;fill:#ffffff;fill-opacity:1;fill-rule:nonzero;stroke:none;stroke-width:8;stroke-linecap:round;stroke-linejoin:round;stroke-miterlimit:4;stroke-dasharray:none;stroke-dashoffset:0;stroke-opacity:1" />
    <circle
       style="opacity:1;fill:#ffffff;fill-opacity:1;fill-rule:nonzero;stroke:none;stroke-width:8;stroke-linecap:round;stroke-linejoin:round;stroke-miterlimit:4;stroke-dasharray:none;stroke-dashoffset:0;stroke-opacity:1"
       id="circle4325"
       cx="46.500034"
       cy="975.23712"
       r="17.499966" />
    <path
       style="color:#000000;font-style:normal;font-variant:normal;font-weight:normal;font-stretch:normal;font-size:medium;line-height:normal;font-family:sans-serif;text-indent:0;text-align:start;text-decoration:none;text-decoration-line:none;text-decoration-style:solid;text-decoration-color:#000000;letter-spacing:normal;word-spacing:normal;text-transform:none;direction:ltr;block-progression:tb;writing-mode:lr-tb;baseline-shift:baseline;text-anchor:start;white-space:normal;clip-rule:nonzero;display:inline;overflow:visible;visibility:visible;opacity:1;isolation:auto;mix-blend-mode:normal;color-interpolation:sRGB;color-interpolation-filters:linearRGB;solid-color:#000000;solid-opacity:1;fill:#404040;fill-opacity:1;fill-rule:evenodd;stroke:none;stroke-width:4;stroke-linecap:butt;stroke-linejoin:round;stroke-miterlimit:4;stroke-dasharray:none;stroke-dashoffset:0;stroke-opacity:1;color-rendering:auto;image-rendering:auto;shape-rendering:auto;text-rendering:auto;enable-background:accumulate"
       d="m 92,939.3621 c -2.521365,0.002 -4.818387,1.4492 -5.909668,3.72217 l -15.656006,-2.81811 c -0.114444,-0.0206 -0.23066,-0.0298 -0.346924,-0.0274 -0.770285,0.0165 -1.439164,0.53484 -1.64746,1.27661 l -5.721681,20.43262 C 58.860393,957.25092 53.021179,954.2371 46.5,954.2371 c -11.556505,0 -21,9.44349 -21,21 0,7.71838 4.216328,14.48805 10.457276,18.13745 10.80915,6.66435 14.063036,15.80375 16.667724,34.36255 -1.75,0 -13.125,0.625 -11.375,7.625 l 22.75,0 22.75,0 c 1.75,-7 -9.625,-7.625 -11.375,-7.625 2.604688,-18.5588 5.858574,-27.6982 16.667725,-34.36255 C 98.283673,989.72515 102.5,982.95548 102.5,975.2371 c 0,-11.55651 -9.443495,-21 -21,-21 -5.703517,0 -10.88293,2.30797 -14.675049,6.02759 l 4.556153,-16.27295 14.085449,2.53613 c 0.311654,3.37579 3.143305,5.95857 6.533447,5.95923 3.624364,-1e-5 6.56249,-2.93814 6.5625,-6.5625 -1e-5,-3.62436 -2.938136,-6.56249 -6.5625,-6.5625 z m -45.5,21.875 c 7.773424,0 14,6.22657 14,14 0,7.77342 -6.226576,14 -14,14 -7.773424,0 -14,-6.22658 -14,-14 0,-7.77343 6.226576,-14 14,-14 z m 35,0 c 7.773424,0 14,6.22657 14,14 0,7.77342 -6.226576,14 -14,14 -7.773424,0 -14,-6.22658 -14,-14 0,-7.77343 6.226576,-14 14,-14 z"
       id="path4305"
       inkscape:connector-curvature="0"
       sodipodi:nodetypes="ccccccsscccccccssccccscssssssssss" />
    <circle
       style="opacity:1;fill:#3a79da;fill-opacity:1;fill-rule:nonzero;stroke:none;stroke-width:12;stroke-linecap:round;stroke-linejoin:round;stroke-miterlimit:4;stroke-dasharray:none;stroke-dashoffset:0;stroke-opacity:1"
       id="circle4388"
       cx="81.5"
       cy="975.23712"
       r="7.8750191" />
    <circle
       r="7.8750191"
       cy="975.23712"
       cx="46.500034"
       id="circle4327"
       style="opacity:1;fill:#3a79da;fill-opacity:1;fill-rule:nonzero;stroke:none;stroke-width:12;stroke-linecap:round;stroke-linejoin:round;stroke-miterlimit:4;stroke-dasharray:none;stroke-dashoffset:0;stroke-opacity:1" />
  </g>
</svg>
